<?xml version="1.0" encoding="utf-8"?>
<!-- Generator: Adobe Illustrator 21.0.0, SVG Export Plug-In . SVG Version: 6.00 Build 0)  -->
<svg version="1.1" id="Logo" xmlns="http://www.w3.org/2000/svg" xmlns:xlink="http://www.w3.org/1999/xlink" x="0px" y="0px"
	 viewBox="0 0 429.5 85" style="enable-background:new 0 0 429.5 85;" xml:space="preserve">
<style type="text/css">
	.st0{fill:#1384EE;}
	.st1{enable-background:new    ;}
</style>
<g id="foot">
	<path d="M36.9,34.4C26.5,45.9,29.7,54,31.6,58c2.3,5.1,11,9.9,10.9,16.7c-0.1,2.6-2.6,5.2-6.4,6.4c-3.6,1.1-6.6,1.4-10.5-2.6
		C12.4,65,7.6,49.4,7.6,49.4L36.9,34.4z"/>
	<g>
		<path class="st0" d="M27.2,16.2c-2.3-3.2-1.6-9,1.2-11.5c1.9-1.7,4.3-1.4,5.7,0.7c2,2.9,2,7.3-0.1,10.4
			C32.1,18.7,29.2,18.9,27.2,16.2z"/>
		<path class="st0" d="M20.6,10.3c1.8,1.6,2.4,5.3,1.2,7.5c-1.2,2.1-3.4,2.4-5,0.5c-1.6-2-1.9-4.2-1.4-6
			C16.7,9.3,18.7,8.8,20.6,10.3z"/>
		<path class="st0" d="M12,16.3c1.9,1,3.1,3.9,2.4,5.9c-0.5,1.6-1.9,2.2-3.3,1.4c-1.9-1-3-3.9-2.4-6C9.2,16,10.5,15.6,12,16.3z"/>
		<path class="st0" d="M4.3,25.5c0.1-1.4,1.2-2.2,2.5-1.7c1.6,0.5,2.9,2.4,2.8,4.2c-0.1,1.4-1.2,2.1-2.5,1.7
			C5.4,29.1,4.1,27.1,4.3,25.5z"/>
		<path class="st0" d="M3.8,36.3C2.7,35.7,2,34,2.3,32.6c0.3-1.1,1.2-1.5,2.2-1c1.2,0.6,1.9,2.4,1.5,3.8C5.7,36.5,4.8,36.9,3.8,36.3
			z"/>
		<path class="st0" d="M31.3,20.4c7.2,1.1,8.4,6.7,7.3,10.5c-1.4,4.9-6.6,8.4-10.4,12.8c-4.6,5.3-8,12.8-7.7,20.3
			c0.2,5,5,14.5,5,14.5s-9-8-16-23.9C-1.1,30.6,25.6,19.6,31.3,20.4z"/>
	</g>
</g>
<g id="footwork">
	<g class="st1">
		<path d="M64.3,29v11.3h15.8v6.7H64.3v17.4h-8.1V21.9h27.9V29H64.3z"/>
		<path d="M100.9,62.4c-3.1-1.8-5.5-4.3-7.1-7.6c-1.6-3.3-2.4-7.2-2.4-11.7c0-4.5,0.8-8.4,2.4-11.7c1.6-3.3,4-5.8,7.1-7.6
			c3.1-1.8,6.9-2.7,11.2-2.7c4.4,0,8.1,0.9,11.2,2.7c3.1,1.8,5.5,4.3,7.1,7.6c1.6,3.3,2.4,7.2,2.4,11.7c0,4.5-0.8,8.4-2.4,11.7
			c-1.6,3.3-4,5.8-7.1,7.6c-3.1,1.8-6.9,2.7-11.2,2.7C107.8,65.1,104.1,64.2,100.9,62.4z M121.2,53.9c2.2-2.5,3.3-6.1,3.3-10.8
			c0-4.7-1.1-8.3-3.3-10.8c-2.2-2.5-5.2-3.8-9-3.8c-3.8,0-6.8,1.3-9,3.8c-2.2,2.5-3.3,6.1-3.3,10.8c0,4.7,1.1,8.3,3.3,10.8
			c2.2,2.5,5.2,3.8,9,3.8C116,57.6,119,56.4,121.2,53.9z"/>
		<path d="M152.2,62.4c-3.1-1.8-5.5-4.3-7.1-7.6c-1.6-3.3-2.4-7.2-2.4-11.7c0-4.5,0.8-8.4,2.4-11.7c1.6-3.3,4-5.8,7.1-7.6
			c3.1-1.8,6.9-2.7,11.2-2.7c4.4,0,8.1,0.9,11.2,2.7c3.1,1.8,5.5,4.3,7.1,7.6c1.6,3.3,2.4,7.2,2.4,11.7c0,4.5-0.8,8.4-2.4,11.7
			c-1.6,3.3-4,5.8-7.1,7.6c-3.1,1.8-6.9,2.7-11.2,2.7C159,65.1,155.3,64.2,152.2,62.4z M172.4,53.9c2.2-2.5,3.3-6.1,3.3-10.8
			c0-4.7-1.1-8.3-3.3-10.8c-2.2-2.5-5.2-3.8-9-3.8c-3.8,0-6.8,1.3-9,3.8c-2.2,2.5-3.3,6.1-3.3,10.8c0,4.7,1.1,8.3,3.3,10.8
			c2.2,2.5,5.2,3.8,9,3.8C167.2,57.6,170.2,56.4,172.4,53.9z"/>
		<path d="M202.1,29.3H190v-7.4h32.2v7.4h-12.1v35.1h-8.1V29.3z"/>
		<path d="M289.7,21.9l-13.4,42.5H267l-9-30.5l-9,30.5h-9.4l-13.4-42.5h8.7l9.5,32.6l9.3-32.6h8.8l9.3,32.6l9.5-32.6H289.7z"/>
		<path d="M302.2,62.4c-3.1-1.8-5.5-4.3-7.1-7.6s-2.4-7.2-2.4-11.7c0-4.5,0.8-8.4,2.4-11.7s4-5.8,7.1-7.6c3.1-1.8,6.9-2.7,11.2-2.7
			s8.1,0.9,11.2,2.7c3.1,1.8,5.5,4.3,7.1,7.6c1.6,3.3,2.4,7.2,2.4,11.7c0,4.5-0.8,8.4-2.4,11.7c-1.6,3.3-4,5.8-7.1,7.6
			c-3.1,1.8-6.9,2.7-11.2,2.7S305.4,64.2,302.2,62.4z M322.5,53.9c2.2-2.5,3.3-6.1,3.3-10.8c0-4.7-1.1-8.3-3.3-10.8s-5.2-3.8-9-3.8
			c-3.8,0-6.8,1.3-9,3.8c-2.2,2.5-3.3,6.1-3.3,10.8c0,4.7,1.1,8.3,3.3,10.8c2.2,2.5,5.2,3.8,9,3.8C317.3,57.6,320.3,56.4,322.5,53.9
			z"/>
		<path d="M369.6,64.3L361,48.2h-7.6v16.2h-8.1V21.9h15.3c5.5,0,9.6,1.1,12.3,3.3c2.7,2.2,4.1,5.4,4.1,9.6c0,3-0.7,5.5-2,7.6
			c-1.3,2.1-3.3,3.6-6,4.6l9.4,17.4H369.6z M353.4,41.1h7.3c2.7,0,4.7-0.5,5.9-1.4c1.3-0.9,1.9-2.5,1.9-4.8c0-2.2-0.6-3.7-1.9-4.6
			c-1.3-0.9-3.3-1.3-6-1.3h-7.3V41.1z"/>
		<path d="M400.7,46.8l-4.6,5.4v12.2h-8.1V21.9h8.1v19.3l16.3-19.3h9.9l-16,18.5l17,23.9h-9.9L400.7,46.8z"/>
	</g>
</g>
</svg>
