<?xml version="1.0" encoding="utf-8"?>
<!-- Generator: Adobe Illustrator 21.0.0, SVG Export Plug-In . SVG Version: 6.00 Build 0)  -->
<svg version="1.1" xmlns="http://www.w3.org/2000/svg" xmlns:xlink="http://www.w3.org/1999/xlink" x="0px" y="0px"
	 viewBox="0 0 629 255.3" style="enable-background:new 0 0 629 255.3;" xml:space="preserve">
<style type="text/css">
	.st0{fill:#5E5E5E;}
	.st1{fill:#1384EE;}
	.st2{display:none;}
	.st3{display:inline;}
	.st4{font-family:'Amiko-Bold';}
	.st5{font-size:72px;}
</style>
<g id="Left">
	<path class="st0" d="M99.3,110.5c4.1,23.8-7,31.7-12.9,35.5c-7.4,4.8-22.7,3.7-28.3,12.7c-2.1,3.4-1,9,3.1,13.8
		c3.8,4.4,7.5,7.4,16,5.4c28.4-6.6,47.7-22.9,47.7-22.9L99.3,110.5z"/>
	<g>
		<path class="st1" d="M118.6,88.7c-0.1-5.8,3.5-11.6,8.6-13.7c3.6-1.5,7,0.1,8.1,3.8c1.6,5.6-2.5,13.9-8.1,16.1
			C122.5,96.8,118.7,94.1,118.6,88.7z"/>
		<path class="st1" d="M146,99.4c-0.8,2.9-3.1,5.6-6.9,6.8c-3.6,1.2-6.2-1-6.1-4.8c0.2-3.7,4.2-8.2,7.8-8.7
			C144.6,92.2,146.9,94.6,146,99.4z"/>
		<path class="st1" d="M150.3,112.4c-0.9,3.2-4.8,6.1-8.1,5.8c-2.6-0.2-3.9-2.1-3.2-4.6c0.9-3.2,4.9-6,8.2-5.7
			C149.7,108.1,151,109.8,150.3,112.4z"/>
		<path class="st1" d="M142.5,129.4c-2.1-0.6-2.9-2.4-1.9-4.3c1.3-2.3,4.7-3.8,7.2-3.1c2.1,0.6,2.9,2.4,1.8,4.4
			C148.3,128.6,145,130.1,142.5,129.4z"/>
		<path class="st1" d="M138.8,137.8c0.6-2.1,3-3.9,5.2-3.7c1.8,0.2,2.7,1.5,2,3.2c-0.6,2-3,3.7-5.1,3.6
			C139.3,140.8,138.4,139.5,138.8,137.8z"/>
		<path class="st1" d="M118.4,97c-10.3-4.6-16.6,1.8-18.4,7.6c-2.4,7.5,1.6,16.4,2.9,25.4c1.5,10.7-0.2,23.5-7,33.1
			c-4.5,6.3-18.6,14.8-18.6,14.8s18.6-3,41-17.8C152.2,137.6,126.7,100.7,118.4,97z"/>
	</g>
</g>
<g id="footwork" class="st2">
	<text transform="matrix(1 0 0 1 132.9309 166.8333)" class="st3 st4 st5">FOOTWORK</text>
</g>
</svg>
