<?xml version="1.0" encoding="utf-8"?>
<!-- Generator: Adobe Illustrator 21.0.0, SVG Export Plug-In . SVG Version: 6.00 Build 0)  -->
<svg version="1.1" id="Layer_1" xmlns="http://www.w3.org/2000/svg" xmlns:xlink="http://www.w3.org/1999/xlink" x="0px" y="0px"
	 viewBox="0 0 64.1 64" style="enable-background:new 0 0 64.1 64;" xml:space="preserve">
<style type="text/css">
	.st0{fill:#E15545;}
	.st1{fill:#FFFFFF;}
	.st2{display:none;}
	.st3{display:inline;enable-background:new    ;}
</style>
<path class="st0" d="M52,64H12C5.4,64,0,58.6,0,52V12C0,5.4,5.4,0,12,0h40c6.6,0,12,5.4,12,12v40C64,58.6,58.6,64,52,64z"/>
<g id="Left">
	<path class="st1" d="M29.6,23.6c2.2,12.5-3.7,16.7-6.8,18.7C19,44.8,10.9,44.2,8,48.9c-1.1,1.8-0.5,4.7,1.6,7.3
		c2,2.3,3.9,3.9,8.4,2.8C33,55.6,43.1,47,43.1,47L29.6,23.6z"/>
	<g>
		<path class="st1" d="M39.8,12.1c-0.1-3,1.8-6.1,4.5-7.2c1.9-0.8,3.7,0.1,4.3,2c0.8,2.9-1.3,7.3-4.3,8.5
			C41.8,16.4,39.8,15,39.8,12.1z"/>
		<path class="st1" d="M54.2,17.8c-0.4,1.5-1.6,2.9-3.6,3.6c-1.9,0.6-3.3-0.5-3.2-2.5c0.1-1.9,2.2-4.3,4.1-4.6
			C53.5,14,54.7,15.2,54.2,17.8z"/>
		<path class="st1" d="M56.5,24.6c-0.5,1.7-2.5,3.2-4.3,3c-1.4-0.1-2.1-1.1-1.7-2.4c0.5-1.7,2.6-3.2,4.3-3
			C56.1,22.3,56.8,23.2,56.5,24.6z"/>
		<path class="st1" d="M52.4,33.5c-1.1-0.3-1.5-1.3-1-2.3c0.7-1.2,2.5-2,3.8-1.6c1.1,0.3,1.5,1.3,0.9,2.3
			C55.4,33.1,53.7,33.9,52.4,33.5z"/>
		<path class="st1" d="M50.4,37.9c0.3-1.1,1.6-2.1,2.7-1.9c0.9,0.1,1.4,0.8,1.1,1.7c-0.3,1.1-1.6,1.9-2.7,1.9
			C50.7,39.5,50.2,38.8,50.4,37.9z"/>
		<path class="st1" d="M39.7,16.5c-5.4-2.4-8.7,0.9-9.7,4c-1.3,3.9,0.8,8.6,1.5,13.4c0.8,5.6-0.1,12.4-3.7,17.4
			c-2.4,3.3-9.8,7.8-9.8,7.8s9.8-1.6,21.6-9.4C57.5,37.8,44.1,18.4,39.7,16.5z"/>
	</g>
</g>
<g id="footwork" class="st2">
	<g class="st3">
		<path d="M37.6,31.4v3.3h4.7v2h-4.7v5.1h-2.4V29.3h8.2v2.1C43.4,31.4,37.6,31.4,37.6,31.4z"/>
		<path d="M48.4,41.2c-0.9-0.5-1.6-1.3-2.1-2.3c-0.5-1-0.7-2.1-0.7-3.5c0-1.3,0.3-2.5,0.7-3.5c0.5-1,1.2-1.7,2.1-2.3
			c0.9-0.5,2-0.8,3.3-0.8c1.3,0,2.4,0.3,3.3,0.8c0.9,0.5,1.6,1.3,2.1,2.3c0.5,1,0.7,2.1,0.7,3.5c0,1.3-0.3,2.5-0.7,3.5
			c-0.5,1-1.2,1.7-2.1,2.3S53,42,51.7,42S49.3,41.8,48.4,41.2z M54.4,38.7c0.7-0.8,1-1.8,1-3.2s-0.3-2.5-1-3.2
			c-0.7-0.8-1.5-1.1-2.7-1.1c-1.1,0-2,0.4-2.7,1.1c-0.7,0.8-1,1.8-1,3.2s0.3,2.5,1,3.2c0.7,0.8,1.5,1.1,2.7,1.1
			C52.9,39.8,53.7,39.5,54.4,38.7z"/>
		<path d="M63.6,41.2c-0.9-0.5-1.6-1.3-2.1-2.3s-0.7-2.1-0.7-3.5c0-1.3,0.3-2.5,0.7-3.5c0.5-1,1.2-1.7,2.1-2.3
			c0.9-0.5,2-0.8,3.3-0.8s2.4,0.3,3.3,0.8c0.9,0.5,1.6,1.3,2.1,2.3s0.7,2.1,0.7,3.5c0,1.3-0.3,2.5-0.7,3.5c-0.5,1-1.2,1.7-2.1,2.3
			s-2,0.8-3.3,0.8S64.5,41.8,63.6,41.2z M69.6,38.7c0.7-0.8,1-1.8,1-3.2s-0.3-2.5-1-3.2c-0.7-0.8-1.5-1.1-2.7-1.1
			c-1.1,0-2,0.4-2.7,1.1c-0.7,0.8-1,1.8-1,3.2s0.3,2.5,1,3.2c0.7,0.8,1.5,1.1,2.7,1.1S68.9,39.5,69.6,38.7z"/>
		<path d="M78.3,31.4h-3.6v-2.2h9.5v2.2h-3.6v10.4h-2.4V31.4z"/>
		<path d="M104.3,29.3l-4,12.6h-2.8l-2.7-9l-2.7,9h-2.8l-4-12.6H88l2.8,9.7l2.8-9.7h2.6l2.8,9.7l2.8-9.7L104.3,29.3L104.3,29.3z"/>
		<path d="M108,41.2c-0.9-0.5-1.6-1.3-2.1-2.3s-0.7-2.1-0.7-3.5c0-1.3,0.3-2.5,0.7-3.5c0.5-1,1.2-1.7,2.1-2.3c0.9-0.5,2-0.8,3.3-0.8
			s2.4,0.3,3.3,0.8c0.9,0.5,1.6,1.3,2.1,2.3c0.5,1,0.7,2.1,0.7,3.5c0,1.3-0.3,2.5-0.7,3.5c-0.5,1-1.2,1.7-2.1,2.3
			c-0.9,0.5-2,0.8-3.3,0.8C110,42,108.9,41.8,108,41.2z M114,38.7c0.7-0.8,1-1.8,1-3.2s-0.3-2.5-1-3.2c-0.7-0.8-1.5-1.1-2.7-1.1
			c-1.1,0-2,0.4-2.7,1.1c-0.7,0.8-1,1.8-1,3.2s0.3,2.5,1,3.2c0.7,0.8,1.5,1.1,2.7,1.1S113.3,39.5,114,38.7z"/>
		<path d="M127.9,41.8l-2.6-4.8h-2.2v4.8h-2.4V29.3h4.5c1.6,0,2.8,0.3,3.6,1c0.8,0.7,1.2,1.6,1.2,2.8c0,0.9-0.2,1.6-0.6,2.2
			c-0.4,0.6-1,1.1-1.8,1.4l2.8,5.1H127.9z M123.1,34.9h2.2c0.8,0,1.4-0.2,1.8-0.4s0.6-0.8,0.6-1.4c0-0.6-0.2-1.1-0.6-1.4
			c-0.4-0.3-1-0.4-1.8-0.4h-2.2L123.1,34.9L123.1,34.9z"/>
		<path d="M137.1,36.6l-1.4,1.6v3.6h-2.4V29.3h2.4V35l4.8-5.7h2.9l-4.7,5.5l5,7.1h-2.9L137.1,36.6z"/>
	</g>
</g>
</svg>
