<?xml version="1.0" encoding="utf-8"?>
<!-- Generator: Adobe Illustrator 21.0.0, SVG Export Plug-In . SVG Version: 6.00 Build 0)  -->
<svg version="1.1" id="Layer_1" xmlns="http://www.w3.org/2000/svg" xmlns:xlink="http://www.w3.org/1999/xlink" x="0px" y="0px"
	 viewBox="0 0 226 255.3" style="enable-background:new 0 0 226 255.3;" xml:space="preserve">
<style type="text/css">
	.st0{fill:#5E5E5E;}
	.st1{fill:#1384EE;}
	.st2{display:none;}
	.st3{display:inline;enable-background:new    ;}
</style>
<g id="Left">
	<path class="st0" d="M99.3,110.5c4.1,23.8-7,31.7-12.9,35.5c-7.4,4.8-22.7,3.7-28.3,12.7c-2.1,3.4-1,9,3.1,13.8
		c3.8,4.4,7.5,7.4,16,5.4c28.4-6.6,47.7-22.9,47.7-22.9L99.3,110.5z"/>
	<g>
		<path class="st1" d="M118.6,88.7c-0.1-5.8,3.5-11.6,8.6-13.7c3.6-1.5,7,0.1,8.1,3.8c1.6,5.6-2.5,13.9-8.1,16.1
			C122.5,96.8,118.7,94.1,118.6,88.7z"/>
		<path class="st1" d="M146,99.4c-0.8,2.9-3.1,5.6-6.9,6.8c-3.6,1.2-6.2-1-6.1-4.8c0.2-3.7,4.2-8.2,7.8-8.7
			C144.6,92.2,146.9,94.6,146,99.4z"/>
		<path class="st1" d="M150.3,112.4c-0.9,3.2-4.8,6.1-8.1,5.8c-2.6-0.2-3.9-2.1-3.2-4.6c0.9-3.2,4.9-6,8.2-5.7
			C149.7,108.1,151,109.8,150.3,112.4z"/>
		<path class="st1" d="M142.5,129.4c-2.1-0.6-2.9-2.4-1.9-4.3c1.3-2.3,4.7-3.8,7.2-3.1c2.1,0.6,2.9,2.4,1.8,4.4
			C148.3,128.6,145,130.1,142.5,129.4z"/>
		<path class="st1" d="M138.8,137.8c0.6-2.1,3-3.9,5.2-3.7c1.8,0.2,2.7,1.5,2,3.2c-0.6,2-3,3.7-5.1,3.6
			C139.3,140.8,138.4,139.5,138.8,137.8z"/>
		<path class="st1" d="M118.4,97c-10.3-4.6-16.6,1.8-18.4,7.6c-2.4,7.5,1.6,16.4,2.9,25.4c1.5,10.7-0.2,23.5-7,33.1
			c-4.5,6.3-18.6,14.8-18.6,14.8s18.6-3,41-17.8C152.2,137.6,126.7,100.7,118.4,97z"/>
	</g>
</g>
<g id="footwork" class="st2">
	<g class="st3">
		<path d="M149.9,125.1v13.3h18.6v7.9h-18.6v20.5h-9.5v-50.1h32.9v8.4H149.9z"/>
		<path d="M193.1,164.5c-3.7-2.1-6.5-5.1-8.4-9c-1.9-3.9-2.9-8.5-2.9-13.8s1-9.9,2.9-13.8c1.9-3.9,4.7-6.9,8.4-9
			c3.7-2.1,8.1-3.2,13.2-3.2c5.1,0,9.6,1.1,13.2,3.2c3.7,2.1,6.5,5.1,8.4,9c1.9,3.9,2.9,8.5,2.9,13.8s-1,9.9-2.9,13.8
			c-1.9,3.9-4.7,6.9-8.4,9c-3.7,2.1-8.1,3.2-13.2,3.2C201.2,167.7,196.8,166.6,193.1,164.5z M217,154.5c2.6-3,3.9-7.2,3.9-12.7
			c0-5.5-1.3-9.8-3.9-12.7c-2.6-3-6.1-4.4-10.7-4.4c-4.5,0-8.1,1.5-10.7,4.4c-2.6,3-3.9,7.2-3.9,12.7c0,5.5,1.3,9.8,3.9,12.7
			c2.6,3,6.1,4.4,10.7,4.4C210.9,158.9,214.4,157.4,217,154.5z"/>
		<path d="M253.6,164.5c-3.7-2.1-6.5-5.1-8.4-9c-1.9-3.9-2.9-8.5-2.9-13.8s1-9.9,2.9-13.8c1.9-3.9,4.7-6.9,8.4-9
			c3.7-2.1,8.1-3.2,13.2-3.2c5.1,0,9.6,1.1,13.2,3.2c3.7,2.1,6.5,5.1,8.4,9c1.9,3.9,2.9,8.5,2.9,13.8s-1,9.9-2.9,13.8
			c-1.9,3.9-4.7,6.9-8.4,9c-3.7,2.1-8.1,3.2-13.2,3.2C261.7,167.7,257.3,166.6,253.6,164.5z M277.5,154.5c2.6-3,3.9-7.2,3.9-12.7
			c0-5.5-1.3-9.8-3.9-12.7c-2.6-3-6.1-4.4-10.7-4.4c-4.5,0-8.1,1.5-10.7,4.4c-2.6,3-3.9,7.2-3.9,12.7c0,5.5,1.3,9.8,3.9,12.7
			c2.6,3,6.1,4.4,10.7,4.4C271.4,158.9,274.9,157.4,277.5,154.5z"/>
		<path d="M312.5,125.4h-14.3v-8.7h38v8.7H322v41.4h-9.5V125.4z"/>
		<path d="M416,116.7l-15.8,50.1h-11.1l-10.7-36l-10.7,36h-11.1l-15.8-50.1h10.3l11.2,38.5l11-38.5h10.4l11,38.5l11.2-38.5H416z"/>
		<path d="M430.7,164.5c-3.7-2.1-6.5-5.1-8.4-9c-1.9-3.9-2.9-8.5-2.9-13.8s1-9.9,2.9-13.8c1.9-3.9,4.7-6.9,8.4-9
			c3.7-2.1,8.1-3.2,13.2-3.2c5.1,0,9.6,1.1,13.2,3.2c3.7,2.1,6.5,5.1,8.4,9c1.9,3.9,2.9,8.5,2.9,13.8s-1,9.9-2.9,13.8
			c-1.9,3.9-4.7,6.9-8.4,9c-3.7,2.1-8.1,3.2-13.2,3.2C438.8,167.7,434.4,166.6,430.7,164.5z M454.6,154.5c2.6-3,3.9-7.2,3.9-12.7
			c0-5.5-1.3-9.8-3.9-12.7c-2.6-3-6.1-4.4-10.7-4.4c-4.5,0-8.1,1.5-10.7,4.4c-2.6,3-3.9,7.2-3.9,12.7c0,5.5,1.3,9.8,3.9,12.7
			c2.6,3,6.1,4.4,10.7,4.4C448.5,158.9,452,157.4,454.6,154.5z"/>
		<path d="M510.3,166.8l-10.2-19.1h-8.9v19.1h-9.5v-50.1h18.1c6.5,0,11.3,1.3,14.5,3.9c3.2,2.6,4.8,6.4,4.8,11.3
			c0,3.5-0.8,6.5-2.4,8.9s-3.9,4.3-7.1,5.5l11.1,20.5H510.3z M491.1,139.4h8.6c3.2,0,5.5-0.6,7-1.7c1.5-1.1,2.3-3,2.3-5.6
			c0-2.5-0.7-4.3-2.2-5.4c-1.5-1.1-3.9-1.6-7.1-1.6h-8.6V139.4z"/>
		<path d="M547,146.1l-5.5,6.3v14.4H532v-50.1h9.5v22.8l19.2-22.8h11.7l-18.9,21.9l20.1,28.2h-11.7L547,146.1z"/>
	</g>
</g>
</svg>
