<?xml version="1.0" encoding="utf-8"?>
<!-- Generator: Adobe Illustrator 21.0.0, SVG Export Plug-In . SVG Version: 6.00 Build 0)  -->
<svg version="1.1" id="Logo" xmlns="http://www.w3.org/2000/svg" xmlns:xlink="http://www.w3.org/1999/xlink" x="0px" y="0px"
	 viewBox="0 0 429.5 85" style="enable-background:new 0 0 429.5 85;" xml:space="preserve">
<style type="text/css">
	.st0{fill:#1384EE;}
	.st1{font-family:'Amiko-Bold';}
	.st2{font-size:61px;}
</style>
<g id="Left">
	<path d="M36.9,34.4C26.5,45.9,29.7,54,31.6,58c2.3,5.1,11,9.9,10.9,16.7c-0.1,2.6-2.6,5.2-6.4,6.4c-3.6,1.1-6.6,1.4-10.5-2.6
		C12.4,65,7.6,49.4,7.6,49.4L36.9,34.4z"/>
	<g>
		<path class="st0" d="M27.2,16.2c-2.3-3.2-1.6-9,1.2-11.5c1.9-1.7,4.3-1.4,5.7,0.7c2,2.9,2,7.3-0.1,10.4
			C32.1,18.7,29.2,18.9,27.2,16.2z"/>
		<path class="st0" d="M20.6,10.3c1.8,1.6,2.4,5.3,1.2,7.5c-1.2,2.1-3.4,2.4-5,0.5c-1.6-2-1.9-4.2-1.4-6
			C16.7,9.3,18.7,8.8,20.6,10.3z"/>
		<path class="st0" d="M12,16.3c1.9,1,3.1,3.9,2.4,5.9c-0.5,1.6-1.9,2.2-3.3,1.4c-1.9-1-3-3.9-2.4-6C9.2,16,10.5,15.6,12,16.3z"/>
		<path class="st0" d="M4.3,25.5c0.1-1.4,1.2-2.2,2.5-1.7c1.6,0.5,2.9,2.4,2.8,4.2c-0.1,1.4-1.2,2.1-2.5,1.7
			C5.4,29.1,4.1,27.1,4.3,25.5z"/>
		<path class="st0" d="M3.8,36.3C2.7,35.7,2,34,2.3,32.6c0.3-1.1,1.2-1.5,2.2-1c1.2,0.6,1.9,2.4,1.5,3.8C5.7,36.5,4.8,36.9,3.8,36.3
			z"/>
		<path class="st0" d="M31.3,20.4c7.2,1.1,8.4,6.7,7.3,10.5c-1.4,4.9-6.6,8.4-10.4,12.8c-4.6,5.3-8,12.8-7.7,20.3
			c0.2,5,5,14.5,5,14.5s-9-8-16-23.9C-1.1,30.6,25.6,19.6,31.3,20.4z"/>
	</g>
</g>
<g id="footwork">
	<text transform="matrix(1 0 0 1 49.9309 64.3333)" class="st1 st2">FOOTWORK</text>
</g>
</svg>
