<svg id="Logo" xmlns="http://www.w3.org/2000/svg" viewBox="0 0 33.39 64.89"><defs><style>.cls-1{fill:#ddd;}.cls-2{fill:#fff;}</style></defs><title>logo</title><g id="foot"><path id="heel" class="cls-1" d="M28.82,25.52c-8.71,9.56-6,16.29-4.43,19.65,1.92,4.27,9.13,8.23,9,13.83,0,2.19-2.14,4.33-5.34,5.29-3,.91-5.5,1.12-8.76-2.19A67.19,67.19,0,0,1,4.46,38Z" transform="translate(0 0.02)"/><g id="toes"><path class="cls-2" d="M20.76,10.45C18.89,7.83,19.42,3,21.76.89a3,3,0,0,1,4.75.59,8,8,0,0,1,0,8.65C24.81,12.54,22.35,12.7,20.76,10.45Z" transform="translate(0 0.02)"/><path class="cls-2" d="M15.25,5.54a5.74,5.74,0,0,1,1,6.2c-1,1.76-2.83,2-4.11.37a5.37,5.37,0,0,1-1.12-5C12,4.69,13.7,4.26,15.25,5.54Z" transform="translate(0 0.02)"/><path class="cls-2" d="M8.09,10.56a4.61,4.61,0,0,1,2,4.91,1.78,1.78,0,0,1-2.78,1.12,4.65,4.65,0,0,1-2-5,1.74,1.74,0,0,1,2.78-1Z" transform="translate(0 0.02)"/><path class="cls-2" d="M1.69,18.14A1.49,1.49,0,0,1,3.76,16.7a3.73,3.73,0,0,1,2.35,3.47A1.48,1.48,0,0,1,4,21.56,3.56,3.56,0,0,1,1.69,18.14Z" transform="translate(0 0.02)"/><path class="cls-2" d="M1.31,27.17a2.89,2.89,0,0,1-1.23-3.1,1.19,1.19,0,0,1,1.82-.85,2.92,2.92,0,0,1,1.28,3.15,1.23,1.23,0,0,1-1.87.8Z" transform="translate(0 0.02)"/><path class="cls-2" d="M24.12,13.93c6,.91,6.94,5.55,6.09,8.71-1.13,4-5.45,6.93-8.66,10.62-3.79,4.38-6.67,10.63-6.41,16.88.16,4.11,4.11,12,4.11,12S11.76,55.48,6,42.29C-2.8,22.37,19.36,13.23,24.12,13.93Z" transform="translate(0 0.02)"/></g></g></svg>